<svg width="130" height="58" viewBox="0 0 130 58" fill="none" xmlns="http://www.w3.org/2000/svg">
<g opacity="0.490467">
<path fill-rule="evenodd" clip-rule="evenodd" d="M54.942 14.4982C54.8833 14.3646 54.7825 14.2531 54.6505 14.1748C53.0518 13.2378 51.4173 12.3018 49.7481 11.3649C49.6106 11.2884 49.4465 11.247 49.2741 11.247C49.1018 11.247 48.9249 11.2875 48.7635 11.3649C47.3427 12.0476 45.9411 12.7311 44.5569 13.4138C44.6385 12.7307 44.7203 12.0476 44.8021 11.3644C44.8839 10.6813 44.9657 9.99817 45.0473 9.31505C45.0849 9.00089 44.9281 8.70884 44.6366 8.55038C39.418 5.73956 33.883 2.92874 28.0318 0.117924C27.8714 0.0405362 27.6881 0 27.5029 0C27.3168 0 27.1335 0.0405362 26.9722 0.117924C17.2196 4.80355 8.34515 9.48917 0.349843 14.1757C0.217841 14.2531 0.116089 14.3646 0.0583381 14.4991C-0.000329647 14.6327 -0.0149966 14.7856 0.015254 14.9404C0.197019 15.8768 0.378556 16.8129 0.560093 17.7491L0.560726 17.7523C0.742443 18.6894 0.92416 19.6265 1.10611 20.5639C1.16752 20.878 1.40036 21.171 1.71295 21.3285C3.07331 22.0112 4.41533 22.6938 5.73811 23.3774C4.63809 24.0592 3.55732 24.7419 2.49396 25.4236C2.37296 25.501 2.28129 25.6125 2.22904 25.747C2.17679 25.8806 2.16579 26.0335 2.19604 26.1883C2.79972 29.3003 3.40311 32.4123 4.00654 35.5245L4.00862 35.5352L5.46768 43.0596C5.5291 43.3747 5.73352 43.6677 5.99844 43.8243C13.9287 48.5099 20.9798 53.1955 27.1518 57.8821C27.2536 57.9595 27.3691 58 27.4864 58C27.6037 58 27.7192 57.9595 27.821 57.8821C29.0567 56.9451 30.3272 56.0091 31.6326 55.0722C31.8507 54.9146 31.9965 54.6226 32.0102 54.3084C32.0717 52.9431 32.1322 51.5787 32.1927 50.2134C33.1286 50.896 34.0462 51.5778 34.9445 52.2604C35.0463 52.3369 35.1655 52.3784 35.2892 52.3784C35.3974 52.3784 35.5065 52.347 35.6082 52.2881C39.747 49.4671 44.204 46.6462 48.9799 43.8252C49.2457 43.6686 49.4501 43.3756 49.5116 43.0606L54.9842 14.9413C55.0153 14.7847 55.0007 14.6317 54.942 14.4982ZM32.2852 48.1736L32.2859 48.1588C32.3389 46.9689 32.3918 45.7789 32.4457 44.588C33.3101 45.185 34.1599 45.782 34.995 46.379C34.9549 46.9652 34.9147 47.5516 34.8744 48.138L34.8743 48.1402L34.8721 48.1718L34.87 48.2033L34.8698 48.2055L34.8697 48.2078L34.8695 48.21L34.8694 48.2122L34.8692 48.2145L34.8691 48.2167L34.8689 48.2189L34.8688 48.2211C34.8289 48.8024 34.789 49.3836 34.7493 49.9646C33.9417 49.3676 33.1203 48.7706 32.2852 48.1736ZM14.222 38.4542C13.3493 39.0511 12.4904 39.6481 11.6461 40.2451C15.5264 42.5474 19.195 44.8506 22.6509 47.1538C22.6248 46.557 22.5985 45.9601 22.5722 45.3633C22.5458 44.7652 22.5194 44.1672 22.4932 43.5691C19.8523 41.8638 17.0958 40.1594 14.222 38.4542ZM10.6387 38.7167L9.32417 29.5113C10.25 28.9134 11.1905 28.3146 12.1457 27.7167L12.1469 27.7262C12.5113 30.7927 12.8758 33.8592 13.2412 36.9258C12.3584 37.5218 11.4912 38.1197 10.6387 38.7167ZM4.84984 26.1873C5.99111 26.7852 7.11771 27.3822 8.22965 27.9801C9.16467 27.3822 10.1134 26.7843 11.076 26.1864C9.9631 25.5894 8.8365 24.9924 7.69522 24.3955C6.73271 24.9924 5.78394 25.5903 4.84984 26.1873ZM5.58103 35.145L5.57826 35.1296C5.13263 32.658 4.68701 30.1864 4.24116 27.7148C5.3751 28.3127 6.49437 28.9116 7.59989 29.5095C7.87988 31.2982 8.15965 33.0868 8.43941 34.8753C8.71928 36.6646 8.99915 38.4538 9.27925 40.2433C9.32875 40.5574 9.52492 40.8504 9.79076 41.007C14.5493 43.8197 18.9906 46.6333 23.1166 49.4459C23.2303 49.5224 23.3568 49.5639 23.4842 49.5639C23.6116 49.5639 23.7353 49.5233 23.8435 49.4459C24.0617 49.2884 24.1928 48.9963 24.1836 48.6822L24.0131 43.0578C24.0039 42.7445 23.8472 42.4516 23.6024 42.294C20.8185 40.504 17.9062 38.7149 14.8655 36.9248C14.6771 35.1353 14.4885 33.3454 14.2999 31.5556C14.1113 29.7658 13.9227 27.976 13.7343 26.1864C13.7297 26.1551 13.7252 26.1238 13.7197 26.0915L13.7144 26.0812L13.705 26.063C13.6876 25.9948 13.6619 25.9275 13.6271 25.8603C13.6248 25.852 13.6223 25.8437 13.6197 25.8354L13.6168 25.8256L13.6124 25.8105L13.5813 25.7679C13.5569 25.7346 13.5326 25.7014 13.5088 25.6677L13.496 25.6581L13.4832 25.6484C13.4291 25.5876 13.3695 25.5341 13.3081 25.4918L13.295 25.4777L13.2866 25.4689L13.2797 25.4614C9.93651 23.6593 6.4632 21.8564 2.86064 20.0544L2.21438 16.4678C11.1099 20.8154 19.25 25.1629 26.6357 29.5104L26.8035 55.5881C20.9294 51.2415 14.3008 46.8949 6.91604 42.5483C6.47089 40.0805 6.02596 37.6128 5.58103 35.145ZM2.89731 14.9404C6.37612 16.6282 9.74126 18.3169 12.9918 20.0056C18.1097 22.6634 22.9433 25.3223 27.4919 27.9838C34.9381 23.6363 43.1406 19.2897 52.0984 14.9422C51.0754 14.3452 50.0377 13.7473 48.9854 13.1503C45.2985 14.9395 41.7399 16.7295 38.3097 18.5195C38.1612 18.5969 37.9962 18.6375 37.8321 18.6375H37.7395C37.7357 18.6355 37.7316 18.6339 37.7275 18.6322L37.7223 18.63L37.7166 18.6273C37.6396 18.619 37.5589 18.5978 37.4801 18.5656C37.476 18.5651 37.4721 18.5645 37.4682 18.5638L37.4636 18.563L37.4563 18.5619L37.4332 18.5506L37.4106 18.5399L37.4099 18.5396L37.4097 18.5395L37.3774 18.5241C34.2121 16.7332 30.9185 14.9413 27.4965 13.1503C24.0782 14.9404 20.7882 16.7295 17.6257 18.5195C17.49 18.596 17.3314 18.6375 17.1664 18.6375C17.0014 18.6375 16.8364 18.596 16.6879 18.5186C14.8949 17.5826 13.067 16.6457 11.2034 15.7096C11.0494 15.6369 10.9064 15.5217 10.8028 15.3817C10.7294 15.2831 10.6781 15.1735 10.6488 15.05L10.6433 15.0408L10.6378 15.0316C10.6341 15.0031 10.6302 14.9749 10.6264 14.9467L10.6263 14.9464C10.6224 14.9181 10.6185 14.8897 10.6149 14.8611L10.6183 14.8495L10.6208 14.8413C10.6229 14.8346 10.6249 14.828 10.6268 14.8215C10.6295 14.7294 10.6488 14.64 10.6845 14.5553L10.698 14.525L10.698 14.525L10.698 14.525L10.698 14.525L10.698 14.5249C10.706 14.5069 10.7139 14.4892 10.7221 14.4714C10.7973 14.3415 10.8926 14.2448 11.0155 14.1766C16.0233 11.3649 21.3474 8.55407 26.9877 5.74233C27.1042 5.68429 27.2316 5.64928 27.37 5.63546C27.3792 5.6327 27.3874 5.62993 27.3957 5.62717L27.5891 5.6244L27.6046 5.62933L27.6143 5.63223L27.6143 5.63225C27.6185 5.6335 27.6227 5.63476 27.6269 5.63604C27.6311 5.63734 27.6353 5.63867 27.6395 5.64007C27.7183 5.64836 27.7999 5.6677 27.8806 5.69534C27.8861 5.69626 27.8916 5.69695 27.8971 5.69765C27.9026 5.69834 27.9081 5.69903 27.9136 5.69995L27.9281 5.70634L27.9603 5.72021L27.9876 5.73194L28.0071 5.74049C31.5977 7.53053 35.061 9.3215 38.3959 11.1115C39.5995 10.5136 40.8168 9.9148 42.0488 9.31689C37.4443 6.8451 32.5951 4.37331 27.5011 1.90152C18.5442 6.24811 10.3426 10.5938 2.89731 14.9404ZM38.9642 16.2274L39.2585 12.639C40.4538 12.0411 41.6629 11.4423 42.8867 10.8444C42.8235 11.4413 42.7602 12.0381 42.6968 12.6348L42.6967 12.6355L42.6966 12.6362L42.6966 12.6369L42.6965 12.6376L42.6964 12.6384C42.6329 13.2358 42.5695 13.8332 42.5063 14.4309C41.3109 15.0297 40.1302 15.6286 38.9642 16.2274ZM37.1822 14.4322L37.1822 14.4317L37.1822 14.4313C37.2232 13.8339 37.2642 13.2366 37.305 12.639C34.467 11.1042 31.5345 9.5684 28.5085 8.03447C28.5044 8.63231 28.5 9.22991 28.4957 9.82752V9.82757V9.82763V9.82768V9.82774V9.82779V9.82785V9.8279V9.82795C28.4913 10.4256 28.487 11.0232 28.4828 11.621C31.4355 13.1559 34.2946 14.6907 37.0593 16.2256C37.1001 15.6276 37.1412 15.0299 37.1822 14.4322ZM26.4918 8.03539C26.4955 8.63284 26.4994 9.23052 26.5033 9.8282C26.5072 10.4259 26.5111 11.0236 26.5147 11.621C23.2358 13.3254 20.0723 15.0307 17.0261 16.735C15.8675 16.1362 14.695 15.5383 13.5088 14.9394C17.6247 12.6381 21.9524 10.3367 26.4918 8.03539ZM31.2173 42.4461C31.2531 42.4074 31.2925 42.365 31.3456 42.3254C34.1415 40.5252 37.0667 38.725 40.1201 36.9258L41.2669 26.109L41.2775 26.0874L41.288 26.0657C41.3109 25.9699 41.3485 25.8796 41.3998 25.7958C41.4072 25.7847 41.4136 25.7746 41.42 25.7635C41.424 25.7587 41.428 25.7537 41.4321 25.7488C41.4381 25.7414 41.4441 25.734 41.4501 25.7265L41.4859 25.6817L41.486 25.6816C41.5428 25.6152 41.5987 25.5618 41.6611 25.5148C41.667 25.5078 41.6732 25.5011 41.6794 25.4945L41.6922 25.4807C41.7253 25.4604 41.7573 25.4411 41.7894 25.4208C43.5284 24.4848 45.3021 23.5488 47.1108 22.6128C47.2611 22.5354 47.4252 22.4939 47.5856 22.4939C47.746 22.4939 47.8973 22.5354 48.0229 22.6128C48.2786 22.7694 48.406 23.0614 48.3565 23.3765C47.8811 26.4031 47.4055 29.4294 46.9298 32.4556C46.5177 35.078 46.1055 37.7002 45.6936 40.3225L45.6771 40.3557C45.6496 40.4616 45.6102 40.5565 45.5588 40.6431L45.5506 40.6625L45.5327 40.6863L45.5148 40.7104C45.4397 40.8237 45.3223 40.9361 45.1912 41.0135C42.1625 42.8026 39.263 44.5908 36.491 46.379L36.1967 49.9637C39.9084 47.4919 43.8648 45.021 48.065 42.5492L52.7869 16.4688C51.4137 17.1404 50.0588 17.8111 48.7214 18.4827L48.6856 18.5159L48.5683 18.5518C47.2565 19.2133 45.9622 19.8747 44.6852 20.5362C38.8854 23.5276 33.4439 26.5199 28.36 29.5113L28.173 55.589C28.9806 54.992 29.8029 54.3941 30.6398 53.7971C30.6957 51.9969 30.7513 50.1965 30.8069 48.396L30.807 48.3933L30.8071 48.3906C30.8628 46.5884 30.9185 44.7861 30.9744 42.9841L30.9909 42.9343C31.0019 42.8689 31.0184 42.8035 31.0422 42.7409C31.0441 42.7298 31.045 42.7197 31.0468 42.7095L31.0799 42.6398L31.1128 42.5704L31.1363 42.5454C31.1454 42.5357 31.1543 42.526 31.1632 42.5161H31.1623C31.1556 42.5161 31.1797 42.4888 31.2022 42.4633L31.2173 42.4461ZM46.327 24.9058L44.3442 38.7167C43.4926 38.1197 42.6264 37.5218 41.7463 36.9248L42.9701 26.6968C44.0756 26.0998 45.194 25.5028 46.327 24.9058ZM43.3368 40.246C42.4934 39.6481 41.6345 39.0511 40.7618 38.4532C38.1749 39.989 35.6816 41.5239 33.2817 43.0578C34.1534 43.6557 35.0115 44.2527 35.8557 44.8506C38.2556 43.3157 40.749 41.7809 43.3368 40.246Z" fill="#0F132F"/>
</g>
<g opacity="0.490467">
<g clip-path="url(#clip0)">
<path d="M104.481 50.0151C104.481 44.6624 109.398 40.2944 115.498 40.2944C121.599 40.2944 126.515 44.6623 126.515 50.0151H128.669C128.669 43.4996 122.757 38.2471 115.498 38.2471C108.24 38.2471 102.327 43.4996 102.327 50.0151H104.481Z" fill="#0F132F"/>
<path fill-rule="evenodd" clip-rule="evenodd" d="M129.759 49.8276H102.653L78.6073 25.0659L74 29.0332L100.474 55.8369L104.577 55.9687L128.682 55.9693H129.759V49.8276ZM101.71 51.8748H127.605V53.922H104.613L101.436 53.8195L77.0709 29.1513L78.472 27.9448L101.71 51.8748Z" fill="#0F132F"/>
<path d="M80.8567 27.4935L97.8673 10.7126L96.3163 9.29216L79.3057 26.073L80.8567 27.4935Z" fill="#0F132F"/>
<path fill-rule="evenodd" clip-rule="evenodd" d="M114.086 21.2899C115.281 22.2854 117.086 22.2239 118.111 21.1078C119.137 19.9928 118.958 18.2855 117.762 17.2906L102.594 4.7021C101.394 3.70812 99.5912 3.77013 98.5661 4.88644C97.5407 6.00313 97.7199 7.70953 98.919 8.70371L114.086 21.2899ZM116.345 18.8319C116.668 19.1006 116.711 19.5193 116.489 19.7609C116.267 20.0025 115.826 20.0176 115.503 19.7488L100.335 7.16121C100.01 6.89181 99.9665 6.47483 100.189 6.23265C100.411 5.99054 100.853 5.97534 101.178 6.24497L116.345 18.8319Z" fill="#0F132F"/>
<path fill-rule="evenodd" clip-rule="evenodd" d="M112.171 24.0345C113.391 25.0511 115.224 25.0247 116.255 23.901C117.288 22.7783 117.069 21.0513 115.846 20.0344L100.047 6.92344C98.8233 5.90821 96.9926 5.93444 95.9612 7.05922C94.9294 8.18228 95.1489 9.9107 96.3735 10.925L112.171 24.0345ZM114.429 21.5758C114.792 21.8778 114.848 22.3201 114.632 22.5544C114.419 22.7876 113.95 22.7944 113.589 22.4936L97.7893 9.38218C97.4258 9.08112 97.3696 8.63865 97.5842 8.4051C97.7987 8.17112 98.2673 8.1644 98.6305 8.4657L114.429 21.5758Z" fill="#0F132F"/>
<path d="M112.777 23.8556C112.78 23.8866 112.78 23.8866 112.794 24.0328C112.807 24.177 112.823 24.3443 112.84 24.5326C112.891 25.0708 112.948 25.6704 113.009 26.316C113.185 28.161 113.365 30.006 113.539 31.7284C113.58 32.1376 113.621 32.5357 113.66 32.9217C114.021 36.4266 114.288 38.715 114.442 39.4657L116.556 39.0754C116.422 38.4205 116.154 36.1252 115.804 32.7224C115.764 32.3377 115.724 31.9408 115.683 31.5328C115.509 29.8145 115.33 27.9729 115.154 26.1313C115.093 25.4867 115.036 24.8882 114.986 24.3511C114.968 24.1631 114.953 23.9963 114.939 23.8525C114.926 23.7068 114.926 23.7068 114.923 23.6764L112.777 23.8556Z" fill="#0F132F"/>
<path d="M105.953 27.9056L116.254 27.7942L116.23 25.7471L105.929 25.8585L105.953 27.9056Z" fill="#0F132F"/>
<path d="M106.423 31.9848L116.723 31.8755L116.699 29.8284L106.399 29.9377L106.423 31.9848Z" fill="#0F132F"/>
<path d="M106.893 36.0686L117.195 35.9568L117.171 33.9097L106.868 34.0215L106.893 36.0686Z" fill="#0F132F"/>
</g>
</g>
<defs>
<clipPath id="clip0">
<rect width="56" height="52" fill="white" transform="translate(74 4)"/>
</clipPath>
</defs>
</svg>
