<svg width="1280" height="465" viewBox="0 0 1280 465" fill="none" xmlns="http://www.w3.org/2000/svg">
<path d="M1232.58 68.6717L1003.32 197.603L1073.13 240.203L1302.39 111.272L1232.58 68.6717Z" stroke="#656E77" stroke-width="1.21"/>
<path d="M1210.42 189.993L981.162 318.924L1050.97 361.524L1280.22 232.593L1210.42 189.993Z" stroke="#02DD99" stroke-width="1.21"/>
<path d="M1458.47 158.533L1229.21 287.464L1299.01 330.064L1528.27 201.133L1458.47 158.533Z" stroke="#656E77" stroke-width="1.21"/>
<path d="M3.58256 103.672L-225.676 232.603L-155.873 275.203L73.3858 146.272L3.58256 103.672Z" stroke="#656E77" stroke-width="1.21"/>
<path d="M-18.5796 224.993L-247.838 353.924L-178.035 396.524L51.2237 267.593L-18.5796 224.993Z" stroke="#02DD99" stroke-width="1.21"/>
<path d="M229.47 193.533L0.211612 322.464L70.0149 365.064L299.274 236.133L229.47 193.533Z" stroke="#656E77" stroke-width="1.21"/>
</svg>
